PathFileType	4	(X/Y/Z)	D:/2025/Ayumi_22_01_2025/22-01-2025/static_00_hjc.trc	
DataRate	CameraRate	NumFrames	NumMarkers	Units	OrigDataRate	OrigDataStartFrame	OrigNumFrames	
200.00	200.00	4	66	mm	200.00	96	352	
Frame#	Time	FHD			LBHD			RBHD			LBAR			RASI			RSACR			LSACR			LASI			USACR			C7			CLAV			T10			RSHO			LSHO			LTHI1			LTHI3			LTHI2			LLFC			LTIB1			LTIB2			LTIB3			LMMAL			LLMAL			LHEE			LMT1			LMT5			LMT3			RTHI1			RTHI2			RTHI3			RLFC			RMFC			RTIB1			RTIB3			RTIB2			RLMAL			RMMAL			RHEE			RMT5			RMT1			RMT3			LMEP			LLEP			LDUPA			LMUPA			LUUPA			LUL			LRAD			LRFIN			RUL			RRAD			RUFIN			RMEP			RLEP			RMUPA			RDUPA			RUUPA			LMFC			RBAR			*59			LAJC			RAJC			LKJC			RKJC			LHJC			RHJC			
		X1	Y1	Z1	X2	Y2	Z2	X3	Y3	Z3	X4	Y4	Z4	X5	Y5	Z5	X6	Y6	Z6	X7	Y7	Z7	X8	Y8	Z8	X9	Y9	Z9	X10	Y10	Z10	X11	Y11	Z11	X12	Y12	Z12	X13	Y13	Z13	X14	Y14	Z14	X15	Y15	Z15	X16	Y16	Z16	X17	Y17	Z17	X18	Y18	Z18	X19	Y19	Z19	X20	Y20	Z20	X21	Y21	Z21	X22	Y22	Z22	X23	Y23	Z23	X24	Y24	Z24	X25	Y25	Z25	X26	Y26	Z26	X27	Y27	Z27	X28	Y28	Z28	X29	Y29	Z29	X30	Y30	Z30	X31	Y31	Z31	X32	Y32	Z32	X33	Y33	Z33	X34	Y34	Z34	X35	Y35	Z35	X36	Y36	Z36	X37	Y37	Z37	X38	Y38	Z38	X39	Y39	Z39	X40	Y40	Z40	X41	Y41	Z41	X42	Y42	Z42	X43	Y43	Z43	X44	Y44	Z44	X45	Y45	Z45	X46	Y46	Z46	X47	Y47	Z47	X48	Y48	Z48	X49	Y49	Z49	X50	Y50	Z50	X51	Y51	Z51	X52	Y52	Z52	X53	Y53	Z53	X54	Y54	Z54	X55	Y55	Z55	X56	Y56	Z56	X57	Y57	Z57	X58	Y58	Z58	X59	Y59	Z59	X60	Y60	Z60	X61	Y61	Z61	X62	Y62	Z62	X63	Y63	Z63	X64	Y64	Z64	X65	Y65	Z65	X66	Y66	Z66	

89	0.440	109.41574	969.92181	1611.96216	127.27016	909.48798	1595.18860	146.12088	1040.27600	1583.34375	1041.03394	2031.58691	20.02014	161.76640	1102.62683	927.32495	322.08261	1015.68500	958.87781	319.06195	941.68146	960.64783	148.58153	865.58142	912.49530	314.30371	979.66132	970.36981	297.78992	964.75421	1401.14526	163.02286	981.75952	1329.40796	319.82288	974.10840	1117.34082	236.85936	1114.09644	1405.75781	216.31731	831.42761	1398.35291	236.94469	807.52100	606.45581	261.49399	818.81232	546.13428	210.79527	817.92096	545.82166	229.49278	840.68481	449.32855	256.53018	818.77972	233.64613	306.66113	815.46893	232.48589	279.93628	825.73279	173.48975	284.27515	914.68616	71.84332	297.87595	843.40436	69.61291	340.98346	881.70728	33.99022	143.87238	873.68060	39.17577	169.43143	797.00946	26.80236	144.83868	837.70599	37.25478	257.13702	1156.70142	607.95087	229.25064	1149.00134	549.37030	281.07129	1147.28687	547.65967	239.84903	1125.47009	455.01318	247.59286	1024.20264	449.25620	271.03152	1159.68481	277.29657	294.10410	1155.52319	215.36308	321.69846	1160.70813	275.33939	307.57953	1134.92175	73.61567	276.82364	1063.97485	75.62174	351.59650	1095.35571	28.39541	178.76479	1179.42090	29.34782	151.09372	1115.53149	37.72239	156.16165	1148.26782	36.01973	265.28351	1374.55554	1274.75256	303.89258	1378.29700	1335.13965	313.44391	1278.49731	1348.92749	310.17276	1218.37756	1361.18213	328.78708	1208.28577	1316.03406	232.86998	327.22556	1330.85144	169.05583	319.85751	1348.83423	180.51567	245.67773	1345.10559	283.17810	1612.35046	1334.31128	222.84894	1613.24377	1350.17847	222.03241	1687.27246	1346.55933	203.47122	581.83643	1276.84680	254.41397	564.14636	1327.82886	253.24123	644.79718	1360.23132	282.95474	640.77484	1320.58606	269.30502	704.59644	1366.77441	241.88689	939.33771	442.22046							291.07555	879.04526	70.72812	292.20158	1099.44830	74.61871	235.68983	890.01126	445.77451	243.72095	1074.83636	452.13469	233.82174	903.63144	936.57156	241.92451	1059.15591	943.10138 
90	0.445	109.46268	970.00830	1611.90417	127.27073	909.49902	1595.21912	146.16118	1040.29236	1583.34924	1041.03003	2031.54065	20.02459	161.76166	1102.62390	927.32739	322.04559	1015.69110	958.91608	319.06366	941.68243	960.63629	148.57242	865.58899	912.49585	314.30429	979.67035	970.35681	297.77701	964.75885	1401.14404	163.01630	981.76001	1329.39136	319.80603	974.12512	1117.32434	236.82822	1114.09045	1405.77051	216.30051	831.41443	1398.35864	236.95229	807.51990	606.46686	261.49384	818.80835	546.10590	210.80130	817.91925	545.82172	229.49811	840.69489	449.31274	256.51804	818.81262	233.64719	306.67703	815.47131	232.45352	279.93646	825.72815	173.48314	284.27307	914.68219	71.83437	297.86270	843.40930	69.61015	340.98972	881.71802	33.96505	143.86128	873.67566	39.18726	169.42465	796.96576	26.84318	144.84485	837.70703	37.25062	257.15189	1156.70190	607.94434	229.24327	1149.01453	549.38849	281.09668	1147.29968	547.64252	239.86153	1125.48914	455.00571	247.58549	1024.22314	449.25906	271.03165	1159.68591	277.29843	294.11987	1155.53296	215.35374	321.73544	1160.96655	275.74097	307.58313	1134.92395	73.60650	276.82657	1063.96667	75.61733	351.59476	1095.35229	28.41448	178.76826	1179.40247	29.36301	151.09268	1115.51721	37.71964	156.16467	1148.27014	36.00827	265.27554	1374.54321	1274.71667	303.84698	1378.27991	1335.14185	313.40042	1278.50464	1348.91846	310.15570	1218.39758	1361.11865	328.76935	1208.27881	1316.04553	232.82401	327.22095	1330.75208	169.06151	319.81113	1348.67944	180.43463	245.68672	1344.99060	283.14545	1612.34082	1334.26904	222.79277	1613.24658	1350.14514	222.00130	1687.27991	1346.47876	203.42357	581.85681	1276.80371	254.36075	564.14606	1327.77759	253.21425	644.79364	1360.20544	282.91437	640.77197	1320.59814	269.26315	704.58258	1366.76453	241.88887	939.34747	442.22049							291.06789	879.04575	70.72226	292.20485	1099.44531	74.61192	235.69349	890.02118	445.76662	243.72351	1074.85614	452.13239	233.81804	903.63571	936.56607	241.90363	1059.15750	943.12173 
91	0.450	109.48563	970.04645	1611.88489	127.27508	909.48938	1595.25781	146.18169	1040.31494	1583.36267	1040.97766	2031.54614	20.04600	161.75923	1102.61719	927.32257	322.05829	1015.69324	958.90674	319.05228	941.68976	960.63928	148.58875	865.57452	912.48309	314.31085	979.68536	970.34155	297.75992	964.74908	1401.14355	162.99376	981.74603	1329.39563	319.79855	974.11694	1117.32385	236.82320	1114.09473	1405.74121	216.29401	831.40839	1398.37036	236.95876	807.52954	606.45837	261.51703	818.82007	546.11902	210.81567	817.92285	545.82202	229.50957	840.69147	449.32236	256.40662	819.56274	233.55579	306.65979	815.46893	232.45900	279.93750	825.72522	173.48096	284.28403	914.68573	71.82048	297.88629	843.40393	69.61680	340.97195	881.67688	33.98997	143.86325	873.67535	39.18491	169.41505	796.95569	26.86167	144.84151	837.69446	37.25966	257.14481	1156.70642	607.97009	229.27960	1148.98340	549.37347	281.11337	1147.29749	547.64178	239.90182	1125.49451	454.96530	247.62973	1024.20117	449.22919	271.04959	1159.69202	277.28891	294.14069	1155.53040	215.34238	321.71249	1160.71582	275.32281	307.57864	1134.91980	73.60422	276.83615	1063.96973	75.60732	351.59940	1095.35327	28.40640	178.76755	1179.40344	29.36772	151.09477	1115.52319	37.72093	156.16415	1148.26941	36.02336	265.23819	1374.53821	1274.69568	303.79575	1378.28784	1335.11597	313.36490	1278.50830	1348.90845	310.12354	1218.38672	1361.14648	328.73294	1208.27124	1316.06812	232.78691	327.20929	1330.66296	169.01764	319.78061	1348.65796	180.39822	245.68658	1344.90759	283.11401	1612.34119	1334.23462	223.08360	1613.23669	1349.82336	221.95717	1687.30920	1346.37622	203.38853	581.85968	1276.80994	254.31006	564.13812	1327.75708	253.17278	644.78912	1360.20935	282.88095	640.76703	1320.61230	269.24139	704.58301	1366.76062	241.92076	939.33032	442.20258							291.08516	879.04483	70.71864	292.20740	1099.44476	74.60577	235.71516	890.01089	445.76247	243.76578	1074.84784	452.09724	233.82051	903.63214	936.56119	241.90876	1059.15521	943.11465 
92	0.455	109.49478	970.01965	1611.94458	127.26096	909.51917	1595.28296	146.19685	1040.32080	1583.37439	1041.01563	2031.55676	20.02892	161.75130	1102.66541	927.32001	322.06143	1015.70374	958.87201	319.04648	941.69843	960.63403	148.59155	865.57263	912.48315	314.29547	979.68152	970.36682	297.74118	964.75122	1401.13135	162.98235	981.75104	1329.39270	319.77927	974.11914	1117.33142	236.79878	1114.08911	1405.74109	216.26857	831.40906	1398.34790	236.95618	807.53345	606.43530	261.52390	818.82465	546.09003	210.82036	817.92023	545.80109	229.50145	840.71075	449.31253	256.42621	819.55292	233.54480	306.69189	815.48187	232.47928	279.93256	825.73218	173.48083	284.29645	914.68170	71.83215	297.88336	843.41040	69.61133	340.98999	881.70422	33.96910	143.85683	873.67731	39.15494	169.44441	796.97931	26.81880	144.84644	837.71790	37.21646	257.15732	1156.72974	607.93555	229.31488	1148.99792	549.35345	281.13419	1147.29089	547.65192	239.89357	1125.48047	455.01294	247.63000	1024.22534	449.23514	271.04590	1159.68762	277.29245	294.13510	1155.53711	215.36137	321.76807	1160.84802	275.50647	307.58881	1134.92834	73.59636	276.82562	1063.97913	75.62001	351.59305	1095.34863	28.40732	178.76494	1179.40015	29.36502	151.10738	1115.53381	37.70804	156.16449	1148.26733	36.01493	265.19852	1374.52979	1274.67590	303.76175	1378.28442	1335.12476	313.32886	1278.51355	1348.90295	310.09000	1218.38782	1361.15759	328.71838	1208.27625	1316.06323	232.75493	327.20697	1330.60950	168.96812	319.79889	1348.60754	180.36469	245.65753	1344.84302	283.10193	1612.34277	1334.17944	223.06023	1613.26270	1349.77856	221.96626	1687.34705	1346.28625	203.34932	581.85883	1276.77246	254.28204	564.12531	1327.74194	253.16791	644.75543	1360.24426	282.86337	640.75659	1320.61218	269.23688	704.55542	1366.77380	241.91991	939.34991	442.19757							291.08990	879.04605	70.72174	292.20721	1099.45374	74.60818	235.71068	890.03033	445.75505	243.76179	1074.85291	452.12404	233.81902	903.63553	936.55859	241.90636	1059.18457	943.09601 
